<?xml version="1.0" encoding="UTF-8" standalone="no"?>
<!-- Created with Inkscape (http://www.inkscape.org/) -->

<svg
   width="210mm"
   height="210mm"
   viewBox="0 0 210 210"
   version="1.1"
   id="svg1"
   inkscape:version="1.4 (86a8ad7, 2024-10-11)"
   sodipodi:docname="Minerva_logo_pb_v1.svg"
   xmlns:inkscape="http://www.inkscape.org/namespaces/inkscape"
   xmlns:sodipodi="http://sodipodi.sourceforge.net/DTD/sodipodi-0.dtd"
   xmlns="http://www.w3.org/2000/svg"
   xmlns:svg="http://www.w3.org/2000/svg">
  <sodipodi:namedview
     id="namedview1"
     pagecolor="#ffffff"
     bordercolor="#000000"
     borderopacity="0.25"
     inkscape:showpageshadow="2"
     inkscape:pageopacity="0.0"
     inkscape:pagecheckerboard="0"
     inkscape:deskcolor="#d1d1d1"
     inkscape:document-units="mm"
     inkscape:zoom="0.35545034"
     inkscape:cx="-247.57326"
     inkscape:cy="236.31993"
     inkscape:window-width="1920"
     inkscape:window-height="991"
     inkscape:window-x="-9"
     inkscape:window-y="-9"
     inkscape:window-maximized="1"
     inkscape:current-layer="g2" />
  <defs
     id="defs1" />
  <g
     inkscape:label="Camada 1"
     inkscape:groupmode="layer"
     id="layer1">
    <g
       id="g2"
       transform="matrix(0.3058259,0,0,0.3058259,446.07764,-56.76305)"
       style="fill:#333333">
      <path
         sodipodi:type="star"
         style="fill:#f9f9f9;fill-opacity:1;stroke:none;stroke-width:5.21571;stroke-dasharray:none;stroke-opacity:1;paint-order:stroke fill markers"
         id="path13"
         inkscape:flatsided="true"
         sodipodi:sides="6"
         sodipodi:cx="-1591.9718"
         sodipodi:cy="45.862179"
         sodipodi:r1="319.68564"
         sodipodi:r2="159.84282"
         sodipodi:arg1="0.51716788"
         sodipodi:arg2="1.0407667"
         inkscape:rounded="0.15"
         inkscape:randomized="0"
         d="m -1314.0937,203.92127 c -23.7089,41.68172 -227.8704,161.31156 -275.8223,161.61994 -47.9518,0.30837 -253.635,-116.68576 -277.878,-158.0591 -24.243,-41.37333 -25.7648,-277.997313 -2.0559,-319.67903 23.7089,-41.68171 227.8704,-161.31155 275.8222,-161.61993 47.9519,-0.30838 253.6351,116.68576 277.8781,158.0591 24.243,41.373331 25.7647,277.99731 2.0559,319.67902 z"
         transform="translate(476.70447,483.07618)" />
      <path
         style="fill:#090909;fill-opacity:1;stroke:none;stroke-width:29.6124;stroke-dasharray:none;stroke-opacity:1;paint-order:stroke fill markers"
         d="m -1207.7742,429.44208 c -50.514,-26.85848 -92.1276,-49.09165 -92.4747,-49.40704 -0.3474,-0.31539 41.3258,-22.65658 92.6068,-49.64707 l 93.2383,-49.07364 4.4598,2.19517 c 7.2343,3.56095 180.25182,95.65245 180.94258,96.3098 0.60421,0.57506 -184.52828,98.51408 -186.14598,98.47518 -0.4309,-0.009 -42.1131,-21.99395 -92.6268,-48.8524 z"
         id="path10-8-5" />
      <path
         style="fill:#090909;fill-opacity:1;stroke:none;stroke-width:32.7273;stroke-dasharray:none;stroke-opacity:1;paint-order:stroke fill markers"
         d="m -1128.8328,775.98387 c -8.2772,-0.87158 -23.1678,-4.22974 -32.4713,-7.32302 -26.2789,-8.7373 -64.8964,-32.08418 -90.4955,-54.7108 -26.5851,-23.49808 -42.3139,-49.40434 -47.2877,-77.88616 -1.9941,-11.41907 -1.2126,-31.53869 1.7061,-43.92185 4.6671,-19.80031 11.9165,-36.70383 22.7204,-52.97715 l 5.5657,-8.38291 6.2705,2.88028 c 8.687,3.99024 16.4969,6.3375 50.8648,15.28752 45.959,11.9685 65.627,19.0821 73.9366,26.74175 2.1821,2.01135 7.2664,7.99675 11.2983,13.30091 10.1004,13.28736 12.4293,15.88759 13.2368,14.77907 0.3711,-0.50941 3.6809,-5.24583 7.3553,-10.52539 10.3304,-14.84373 15.1064,-19.55286 24.4127,-24.0707 11.6055,-5.63407 30.1408,-11.51061 64.1563,-20.34046 32.84364,-8.52565 45.01024,-12.27939 53.20166,-16.41442 l 5.27993,-2.66526 4.3628,6.73151 c 10.06547,15.53021 18.29667,35.9506 22.95867,56.95646 3.06549,13.81282 3.83978,34.94794 1.72539,47.10398 -4.17482,24.00395 -15.93636,44.91974 -37.30574,66.34138 -12.31737,12.34738 -22.66296,20.59524 -39.85991,31.7777 -27.864,18.11876 -44.7373,25.98682 -69.2445,32.28873 -19.0107,4.88856 -37.1673,6.63147 -52.3873,5.02883 z"
         id="path8-5-8-8" />
      <g
         id="g11-9-0-6"
         transform="matrix(2.1053102,0,0,2.1053102,-1334.6965,337.20819)"
         style="fill:#f9f9f9;fill-opacity:1">
        <g
           id="g6-9-8-1"
           transform="matrix(3.4989652,0,0,3.4989652,-375.64003,-635.74376)"
           style="fill:#f9f9f9;fill-opacity:1">
          <path
             id="path1-42-9-8-7-2"
             style="fill:#f9f9f9;fill-opacity:1;stroke-width:0.430392;paint-order:stroke fill markers"
             d="m 137.35534,223.43174 c -0.2706,0.0415 -0.64879,0.3747 -0.90481,1.05499 -0.29696,0.78912 -0.55149,1.77936 -0.64184,3.27066 -0.085,1.40263 -0.007,3.22951 0.86525,4.99736 0.21033,0.45122 0.4442,0.71803 0.68029,0.72016 0.24926,0.003 0.57417,-0.41777 0.71923,-0.74735 0.87196,-1.76785 0.9124,-3.56509 0.82742,-4.96773 -0.0903,-1.49129 -0.30205,-2.43132 -0.58208,-3.20363 -0.269,-0.7419 -0.69275,-1.07853 -0.96346,-1.1218 z"
             sodipodi:nodetypes="cascacsacc" />
          <path
             id="path1-42-9-0-1-7-4"
             style="fill:#f9f9f9;fill-opacity:1;stroke-width:0.430392;paint-order:stroke fill markers"
             d="m 137.35183,223.43028 v 10.04021 c 0.24893,1.6e-4 0.57166,-0.41928 0.71624,-0.74775 0.87196,-1.76785 0.91283,-3.56502 0.82785,-4.96766 -0.0903,-1.49129 -0.30236,-2.43111 -0.58239,-3.20342 -0.26849,-0.74049 -0.69092,-1.07708 -0.9617,-1.12138 z" />
        </g>
        <g
           id="g10-8-8-2"
           transform="matrix(2.9087362,0,0,2.9087362,-873.62612,-297.15271)"
           style="fill:#f9f9f9;fill-opacity:1">
          <ellipse
             style="fill:#f9f9f9;fill-opacity:1;stroke-width:4.18858;paint-order:stroke fill markers"
             id="path9-26-3-5"
             cx="152.88905"
             cy="324.69589"
             rx="3.0365899"
             ry="4.4079533"
             transform="rotate(-40.201213)" />
          <ellipse
             style="fill:#f9f9f9;fill-opacity:1;stroke-width:3.58476;paint-order:stroke fill markers"
             id="path9-2-6-8-86"
             cx="168.08362"
             cy="317.77872"
             rx="2.5988419"
             ry="3.7725129"
             transform="rotate(-37.547598)" />
        </g>
        <g
           id="g10-6-0-3-2"
           transform="matrix(-2.9087362,0,0,2.9087362,1082.2782,-297.50707)"
           style="fill:#f9f9f9;fill-opacity:1">
          <ellipse
             style="fill:#f9f9f9;fill-opacity:1;stroke-width:4.18858;paint-order:stroke fill markers"
             id="path9-5-3-7-65"
             cx="152.88905"
             cy="324.69589"
             rx="3.0365899"
             ry="4.4079533"
             transform="rotate(-40.201213)" />
          <ellipse
             style="fill:#f9f9f9;fill-opacity:1;stroke-width:3.58476;paint-order:stroke fill markers"
             id="path9-2-7-8-1-3"
             cx="168.08362"
             cy="317.77872"
             rx="2.5988419"
             ry="3.7725129"
             transform="rotate(-37.547598)" />
        </g>
      </g>
      <path
         id="path2-3-1-0-9"
         style="fill:#090909;fill-opacity:1;stroke-width:26.6714;paint-order:stroke fill markers"
         d="m -905.12888,400.67811 c 0,0 -25.31944,24.57852 -39.85474,34.4192 -47.02082,31.83405 -113.00958,36.38486 -151.26268,78.34978 -9.7022,10.64377 -12.9236,26.02219 -16.2441,40.03633 -2.6535,11.19903 -2.7733,34.20751 -2.7749,34.56952 0,-0.36197 -0.1233,-23.36928 -2.7761,-34.56831 -3.3207,-14.01416 -6.5419,-29.3938 -16.2442,-40.03754 -38.2531,-41.96494 -104.242,-46.51452 -151.2629,-78.34857 -14.5353,-9.8407 -39.8535,-34.4192 -39.8535,-34.4192 0,0 -0.3935,45.02842 6.3396,66.12124 6.4484,20.20012 21.1905,41.54544 61.5922,60.68689 23.8005,11.27615 98.5473,22.09835 125.903,41.66545 6.6233,5.07847 16.2888,19.00036 16.2993,19.01546 v 0.005 -0.002 0.002 -0.005 c 0.023,-0.014 9.6772,-13.93817 16.3005,-19.01667 27.3556,-19.56708 102.10136,-30.38929 125.90178,-41.66543 40.40172,-19.14147 55.14385,-40.48679 61.59219,-60.68691 6.73311,-21.09282 6.34085,-66.12124 6.34085,-66.12124 z" />
      <path
         style="fill:#090909;fill-opacity:1;stroke:none;stroke-width:29.6124;stroke-dasharray:none;stroke-opacity:1;paint-order:stroke fill markers"
         d="m -1116.6943,530.1552 c -3.2281,-12.85048 -12.4907,-27.8282 -22.1625,-35.83644 -11.9195,-9.8695 -37.8586,-23.33494 -66.0827,-34.30487 l -16.7528,-6.5113 v -9.85471 -9.85468 l 6.3115,3.45429 c 10.5716,5.78587 99.9724,53.25357 100.2979,53.25357 0.1675,0 24.1217,-12.53595 53.2318,-27.85767 29.1104,-15.32173 53.0439,-27.85768 53.186,-27.85768 0.1419,0 0.258,4.27886 0.258,9.50856 v 9.50856 l -3.2644,1.06381 c -19.3748,6.31344 -55.3218,23.10259 -68.8748,32.16805 -9.3387,6.24653 -19.4006,16.04638 -24.7734,24.12812 -4.9265,7.41045 -6.5132,10.9697 -8.4206,18.88918 l -1.4534,6.03463 z"
         id="path11-7-2" />
    </g>
  </g>
</svg>
