<?xml version="1.0" encoding="UTF-8" standalone="no"?>
<!-- Created with Inkscape (http://www.inkscape.org/) -->

<svg
   width="210mm"
   height="210mm"
   viewBox="0 0 210 210"
   version="1.1"
   id="svg1"
   inkscape:version="1.4 (86a8ad7, 2024-10-11)"
   sodipodi:docname="Minerva_logo_horizontal_pb_v1.svg"
   xmlns:inkscape="http://www.inkscape.org/namespaces/inkscape"
   xmlns:sodipodi="http://sodipodi.sourceforge.net/DTD/sodipodi-0.dtd"
   xmlns="http://www.w3.org/2000/svg"
   xmlns:svg="http://www.w3.org/2000/svg">
  <sodipodi:namedview
     id="namedview1"
     pagecolor="#ffffff"
     bordercolor="#000000"
     borderopacity="0.25"
     inkscape:showpageshadow="2"
     inkscape:pageopacity="0.0"
     inkscape:pagecheckerboard="0"
     inkscape:deskcolor="#d1d1d1"
     inkscape:document-units="mm"
     showgrid="true"
     inkscape:zoom="0.50268269"
     inkscape:cx="87.530367"
     inkscape:cy="358.07877"
     inkscape:window-width="1920"
     inkscape:window-height="991"
     inkscape:window-x="-9"
     inkscape:window-y="-9"
     inkscape:window-maximized="1"
     inkscape:current-layer="layer1">
    <inkscape:grid
       id="grid10"
       units="mm"
       originx="0"
       originy="0"
       spacingx="0.99999998"
       spacingy="1"
       empcolor="#0099e5"
       empopacity="0.30196078"
       color="#0099e5"
       opacity="0.14901961"
       empspacing="5"
       enabled="true"
       visible="true" />
  </sodipodi:namedview>
  <defs
     id="defs1" />
  <g
     inkscape:label="Camada 1"
     inkscape:groupmode="layer"
     id="layer1">
    <g
       id="g11"
       transform="translate(0,20.027128)">
      <g
         id="g10"
         transform="matrix(1.5571259,0,0,1.5571259,-111.36598,-139.98367)">
        <path
           style="font-weight:800;font-size:3.175px;font-family:Lexend;-inkscape-font-specification:'Lexend, Ultra-Bold';white-space:pre;inline-size:23.5075;fill:#090909;stroke-width:61.4693;paint-order:stroke fill markers"
           d="m 160.12147,192.52911 -5.0025,-12.01045 h 4.66453 l 2.68148,8.96843 -1.08162,0.0213 2.70405,-8.99093 h 4.64195 l -5.25033,12.01046 z"
           id="path6-7" />
        <path
           style="font-weight:800;font-size:3.175px;font-family:Lexend;-inkscape-font-specification:'Lexend, Ultra-Bold';white-space:pre;inline-size:23.5075;fill:#090909;stroke-width:61.4693;paint-order:stroke fill markers"
           d="m 146.20575,192.52911 v -12.01045 h 3.92088 l 0.22498,3.94337 -0.87878,-0.67637 q 0.29312,-0.99149 0.90135,-1.78013 0.63094,-0.81122 1.50973,-1.26189 0.87885,-0.47339 1.84776,-0.47339 0.40526,0 0.76615,0.071 0.36054,0.0426 0.67566,0.13485 l -1.14919,4.64196 q -0.24769,-0.15756 -0.69837,-0.27041 -0.45067,-0.13485 -0.96891,-0.13485 -0.45068,0 -0.81122,0.15756 -0.36054,0.13556 -0.60823,0.40596 -0.2477,0.27041 -0.38325,0.65366 -0.13485,0.36054 -0.13485,0.85628 v 5.74608 z"
           id="path5-6" />
        <path
           style="font-weight:800;font-size:3.175px;font-family:Lexend;-inkscape-font-specification:'Lexend, Ultra-Bold';white-space:pre;inline-size:23.5075;fill:#090909;stroke-width:61.4693;paint-order:stroke fill markers"
           d="m 140.37969,192.75481 q -2.0506,0 -3.53783,-0.78865 -1.48723,-0.81122 -2.29845,-2.20831 -0.81121,-1.41966 -0.81121,-3.22236 0,-1.35203 0.45067,-2.50121 0.45068,-1.14926 1.26189,-1.98297 0.81122,-0.85629 1.91541,-1.30696 1.12669,-0.47339 2.45614,-0.47339 1.30696,0 2.36608,0.45068 1.08162,0.45067 1.84777,1.28446 0.78865,0.83371 1.19425,1.9604 0.42797,1.12669 0.38326,2.47871 l -0.0213,0.94642 h -9.46417 l -0.5181,-2.0956 h 6.62492 l -0.40525,0.45067 v -0.42796 q 0,-0.4961 -0.27041,-0.85629 -0.24769,-0.38325 -0.67636,-0.58552 -0.42797,-0.20298 -0.96899,-0.20298 -0.76615,0 -1.28439,0.31512 -0.4961,0.29311 -0.76615,0.85628 -0.2704,0.56352 -0.2704,1.35203 0,0.90135 0.36054,1.55479 0.38325,0.65366 1.10412,1.01405 0.74365,0.36054 1.8027,0.36054 0.69837,0 1.21682,-0.18027 0.54081,-0.18027 1.14926,-0.63094 l 1.9379,2.72655 q -0.78872,0.63094 -1.59993,1.01405 -0.78865,0.36054 -1.57736,0.5181 -0.78865,0.18027 -1.59987,0.18027 z"
           id="path4-1" />
        <path
           style="font-weight:800;font-size:3.175px;font-family:Lexend;-inkscape-font-specification:'Lexend, Ultra-Bold';white-space:pre;inline-size:23.5075;fill:#090909;stroke-width:61.4693;paint-order:stroke fill markers"
           d="m 121.46148,192.52911 v -12.01045 h 3.92088 l 0.18027,2.43364 -0.85629,0.27041 q 0.2257,-0.85629 0.87879,-1.5098 0.65365,-0.67637 1.55486,-1.05905 0.90135,-0.38325 1.89284,-0.38325 1.35202,0 2.27587,0.56352 0.94642,0.54081 1.41966,1.64493 0.49539,1.08162 0.49539,2.65898 v 7.39107 h -4.19128 v -7.05303 q 0,-0.58623 -0.18027,-0.96898 -0.18027,-0.40526 -0.54081,-0.60824 -0.36054,-0.20298 -0.85628,-0.18027 -0.38325,0 -0.72108,0.11285 -0.31512,0.11284 -0.56352,0.36054 -0.2477,0.22569 -0.38326,0.5181 -0.11284,0.29311 -0.11284,0.65365 v 7.16574 h -2.09561 q -0.76614,0 -1.30695,0 -0.5181,0 -0.81122,0 z"
           id="path3-8" />
        <path
           style="font-weight:800;font-size:3.175px;font-family:Lexend;-inkscape-font-specification:'Lexend, Ultra-Bold';white-space:pre;inline-size:23.5075;fill:#090909;stroke-width:61.4693;paint-order:stroke fill markers"
           d="m 117.66339,178.77188 q -1.14919,0 -1.78013,-0.5181 -0.63095,-0.54081 -0.63095,-1.5098 0,-0.90135 0.63095,-1.46465 0.65365,-0.58553 1.78013,-0.58553 1.12669,0 1.75763,0.54081 0.65366,0.5181 0.65366,1.50973 0,0.90135 -0.65366,1.46473 -0.65365,0.56352 -1.75763,0.56352 z"
           id="path2-9" />
        <path
           style="font-weight:800;font-size:3.175px;font-family:Lexend;-inkscape-font-specification:'Lexend, Ultra-Bold';white-space:pre;inline-size:23.5075;fill:#090909;stroke-width:61.4693;paint-order:stroke fill markers"
           d="m 115.56779,192.52911 v -12.01045 h 4.19127 v 12.01045 z"
           id="path1-2" />
        <path
           style="font-weight:800;font-size:3.175px;font-family:Lexend;-inkscape-font-specification:'Lexend, Ultra-Bold';white-space:pre;inline-size:23.5075;fill:#090909;stroke-width:61.4693;paint-order:stroke fill markers"
           d="m 97.393151,192.52911 v -15.77363 h 3.898379 l 5.74607,9.35155 -3.04202,-0.0213 5.81371,-9.32898 h 3.7631 v 15.77363 h -4.30391 v -4.21378 q 0,-2.02803 0.0901,-3.65047 0.11285,-1.62243 0.36054,-3.22236 l 0.4961,1.32953 -4.03358,6.24181 h -1.48723 l -3.94337,-6.24181 0.4961,-1.32953 q 0.24769,1.5098 0.33783,3.10966 0.11284,1.57736 0.11284,3.76317 v 4.21378 z"
           id="text1-1-7" />
        <path
           style="fill:#000000;fill-opacity:1;stroke-width:4.30739;paint-order:stroke fill markers"
           d="m 171.47438,192.46048 c -0.79285,-0.25898 -1.3679,-0.64722 -2.06926,-1.39702 -1.97193,-2.10816 -2.20378,-5.97124 -0.5114,-8.52092 1.58234,-2.38389 4.97962,-2.90959 7.05082,-1.09106 l 0.48744,0.42798 v -0.67156 -0.67156 h 2.03958 2.03957 v 5.98715 5.98715 h -2.03957 -2.03958 v -0.65793 c 0,-0.36186 -0.0366,-0.65793 -0.0813,-0.65793 -0.0447,0 -0.29337,0.18619 -0.55255,0.41375 -0.74898,0.65762 -1.53418,0.94323 -2.72156,0.98999 -0.64455,0.0254 -1.26573,-0.0281 -1.60217,-0.13804 z m 3.70262,-3.64202 c 1.21411,-0.59046 1.59306,-3.00044 0.68547,-4.35933 -0.72805,-1.09007 -2.58256,-1.20935 -3.45852,-0.22245 -0.65659,0.73974 -0.80229,2.64132 -0.2814,3.67241 0.4348,0.86067 1.03513,1.21677 1.94089,1.15129 0.39804,-0.0288 0.89915,-0.13765 1.11356,-0.24192 z"
           id="path10-9" />
      </g>
      <g
         id="g15"
         style="fill:#333333"
         transform="matrix(0.56590497,0,0,0.56590497,360.93762,-178.24788)">
        <path
           style="fill:#090909;fill-opacity:1;stroke:none;stroke-width:12.7279;stroke-dasharray:none;stroke-opacity:1;paint-order:stroke fill markers"
           d="m -492.02431,395.93861 c -21.71165,-11.5442 -39.59783,-21.10036 -39.74711,-21.23592 -0.14925,-0.13557 17.76251,-9.73816 39.80395,-21.33911 l 40.0753,-21.09262 1.91685,0.94351 c 3.10946,1.53056 77.47516,41.11295 77.77205,41.39549 0.25971,0.24717 -79.3132,42.34292 -80.00852,42.3262 -0.18524,-0.004 -18.10089,-9.45335 -39.81252,-20.99755 z"
           id="path10-8-3" />
        <path
           style="fill:#090909;fill-opacity:1;stroke:none;stroke-width:14.0667;stroke-dasharray:none;stroke-opacity:1;paint-order:stroke fill markers"
           d="m -458.09396,544.88779 c -3.55771,-0.37462 -9.95794,-1.81801 -13.95677,-3.14755 -11.29509,-3.75543 -27.89344,-13.79029 -38.89637,-23.51557 -11.4267,-10.09985 -18.18714,-21.23477 -20.32499,-33.47671 -0.85712,-4.9081 -0.5212,-13.55583 0.73333,-18.87831 2.00594,-8.51049 5.12187,-15.77589 9.76559,-22.77042 l 2.39214,-3.60311 2.69523,1.23799 c 3.73384,1.71507 7.09065,2.72396 21.86252,6.57082 19.75387,5.14425 28.20747,8.20179 31.77913,11.49403 0.93788,0.86451 3.12315,3.43713 4.85616,5.71694 4.34135,5.71112 5.34235,6.82874 5.68941,6.35228 0.15948,-0.21895 1.5821,-2.25474 3.16138,-4.52398 4.44022,-6.38007 6.49304,-8.40413 10.49299,-10.34597 4.98819,-2.42161 12.95499,-4.94744 27.57544,-8.74265 14.11673,-3.66446 19.34609,-5.27788 22.86693,-7.05518 l 2.26935,-1.14557 1.87521,2.89331 c 4.32628,6.67513 7.86421,15.45214 9.86797,24.48079 1.31761,5.93697 1.65039,15.02118 0.74167,20.24604 -1.7944,10.31728 -6.84973,19.30722 -16.03467,28.51458 -5.29418,5.3071 -9.74086,8.85216 -17.13237,13.65856 -11.97636,7.78773 -19.22881,11.16955 -29.76236,13.87821 -8.17117,2.10118 -15.97516,2.85031 -22.51692,2.16147 z"
           id="path8-5-8-3" />
        <g
           id="g11-9-0-7"
           transform="matrix(0.90489579,0,0,0.90489579,-546.5775,356.29502)"
           style="fill:#e6e6e6;fill-opacity:1">
          <g
             id="g6-9-8-4"
             transform="matrix(3.4989652,0,0,3.4989652,-375.64003,-635.74376)"
             style="fill:#e6e6e6;fill-opacity:1">
            <path
               id="path1-42-9-8-7-3"
               style="fill:#e6e6e6;fill-opacity:1;stroke-width:0.430392;paint-order:stroke fill markers"
               d="m 137.35534,223.43174 c -0.2706,0.0415 -0.64879,0.3747 -0.90481,1.05499 -0.29696,0.78912 -0.55149,1.77936 -0.64184,3.27066 -0.085,1.40263 -0.007,3.22951 0.86525,4.99736 0.21033,0.45122 0.4442,0.71803 0.68029,0.72016 0.24926,0.003 0.57417,-0.41777 0.71923,-0.74735 0.87196,-1.76785 0.9124,-3.56509 0.82742,-4.96773 -0.0903,-1.49129 -0.30205,-2.43132 -0.58208,-3.20363 -0.269,-0.7419 -0.69275,-1.07853 -0.96346,-1.1218 z"
               sodipodi:nodetypes="cascacsacc" />
            <path
               id="path1-42-9-0-1-7-8"
               style="fill:#e6e6e6;fill-opacity:1;stroke-width:0.430392;paint-order:stroke fill markers"
               d="m 137.35183,223.43028 v 10.04021 c 0.24893,1.6e-4 0.57166,-0.41928 0.71624,-0.74775 0.87196,-1.76785 0.91283,-3.56502 0.82785,-4.96766 -0.0903,-1.49129 -0.30236,-2.43111 -0.58239,-3.20342 -0.26849,-0.74049 -0.69092,-1.07708 -0.9617,-1.12138 z" />
          </g>
          <g
             id="g10-8-8-0"
             transform="matrix(2.9087362,0,0,2.9087362,-873.62612,-297.15271)"
             style="fill:#e6e6e6;fill-opacity:1">
            <ellipse
               style="fill:#e6e6e6;fill-opacity:1;stroke-width:4.18858;paint-order:stroke fill markers"
               id="path9-26-3-8"
               cx="152.88905"
               cy="324.69589"
               rx="3.0365899"
               ry="4.4079533"
               transform="rotate(-40.201213)" />
            <ellipse
               style="fill:#e6e6e6;fill-opacity:1;stroke-width:3.58476;paint-order:stroke fill markers"
               id="path9-2-6-8-8"
               cx="168.08362"
               cy="317.77872"
               rx="2.5988419"
               ry="3.7725129"
               transform="rotate(-37.547598)" />
          </g>
          <g
             id="g10-6-0-3-0"
             transform="matrix(-2.9087362,0,0,2.9087362,1082.2782,-297.50707)"
             style="fill:#e6e6e6;fill-opacity:1">
            <ellipse
               style="fill:#e6e6e6;fill-opacity:1;stroke-width:4.18858;paint-order:stroke fill markers"
               id="path9-5-3-7-6"
               cx="152.88905"
               cy="324.69589"
               rx="3.0365899"
               ry="4.4079533"
               transform="rotate(-40.201213)" />
            <ellipse
               style="fill:#e6e6e6;fill-opacity:1;stroke-width:3.58476;paint-order:stroke fill markers"
               id="path9-2-7-8-1-8"
               cx="168.08362"
               cy="317.77872"
               rx="2.5988419"
               ry="3.7725129"
               transform="rotate(-37.547598)" />
          </g>
        </g>
        <path
           id="path2-3-1-0-1"
           style="fill:#090909;fill-opacity:1;stroke-width:11.4638;paint-order:stroke fill markers"
           d="m -361.94245,383.57541 c 0,0 -10.88271,10.56424 -17.13022,14.79392 -20.21027,13.68278 -48.57335,15.63879 -65.01515,33.67598 -4.17021,4.57486 -5.55474,11.18475 -6.98201,17.20825 -1.14046,4.81352 -1.19194,14.70293 -1.19269,14.85853 -7.5e-4,-0.15558 -0.0527,-10.04449 -1.19321,-14.85801 -1.42727,-6.02351 -2.81178,-12.63392 -6.982,-17.20877 -16.4418,-18.0372 -44.80488,-19.99268 -65.01515,-33.67546 -6.24751,-4.22969 -17.12971,-14.79392 -17.12971,-14.79392 0,0 -0.1691,19.35393 2.7249,28.41996 2.7716,8.68233 9.10802,17.85689 26.47332,26.08419 10.2298,4.84667 42.35717,9.49822 54.11504,17.90847 2.84684,2.18281 7.00128,8.16666 7.00578,8.17315 v 0.002 l 5.2e-4,-0.001 0.001,0.001 v -0.002 c 0.005,-0.006 4.15945,-5.99085 7.00629,-8.17367 11.75787,-8.41024 43.88472,-13.0618 54.11452,-17.90846 17.3653,-8.22731 23.70171,-17.40187 26.47332,-26.0842 2.894,-9.06603 2.72542,-28.41996 2.72542,-28.41996 z" />
        <path
           style="fill:#090909;fill-opacity:1;stroke:none;stroke-width:12.7279;stroke-dasharray:none;stroke-opacity:1;paint-order:stroke fill markers"
           d="m -452.87672,439.22672 c -1.38742,-5.52334 -5.36866,-11.961 -9.52571,-15.40307 -5.12326,-4.24208 -16.27225,-10.02973 -28.4035,-14.74479 l -7.20058,-2.79866 -0.003,-4.2357 -0.003,-4.23571 2.71277,1.48472 c 4.54385,2.48685 42.96974,22.88923 43.10965,22.88923 0.0719,0 10.36791,-5.38815 22.87995,-11.97367 12.51204,-6.58553 22.79909,-11.97368 22.8601,-11.97368 0.061,0 0.11097,1.83912 0.11097,4.08693 v 4.08694 l -1.40316,0.45723 c -8.32755,2.71362 -23.77819,9.92986 -29.60349,13.82634 -4.01392,2.68486 -8.33869,6.897 -10.64797,10.37065 -2.11746,3.18514 -2.79945,4.71495 -3.61929,8.11887 l -0.62471,2.59379 z"
           id="path11-7-9" />
      </g>
    </g>
  </g>
</svg>
