<?xml version="1.0" encoding="UTF-8" standalone="no"?>
<!-- Created with Inkscape (http://www.inkscape.org/) -->

<svg
   width="210mm"
   height="210mm"
   viewBox="0 0 210 210"
   version="1.1"
   id="svg1"
   inkscape:version="1.4 (86a8ad7, 2024-10-11)"
   sodipodi:docname="Minerva_logo_pb_v2.svg"
   xmlns:inkscape="http://www.inkscape.org/namespaces/inkscape"
   xmlns:sodipodi="http://sodipodi.sourceforge.net/DTD/sodipodi-0.dtd"
   xmlns="http://www.w3.org/2000/svg"
   xmlns:svg="http://www.w3.org/2000/svg">
  <sodipodi:namedview
     id="namedview1"
     pagecolor="#ffffff"
     bordercolor="#000000"
     borderopacity="0.25"
     inkscape:showpageshadow="2"
     inkscape:pageopacity="0.0"
     inkscape:pagecheckerboard="0"
     inkscape:deskcolor="#d1d1d1"
     inkscape:document-units="mm"
     inkscape:zoom="0.17772517"
     inkscape:cx="-230.69327"
     inkscape:cy="838.3731"
     inkscape:window-width="1920"
     inkscape:window-height="991"
     inkscape:window-x="-9"
     inkscape:window-y="-9"
     inkscape:window-maximized="1"
     inkscape:current-layer="g1" />
  <defs
     id="defs1" />
  <g
     inkscape:label="Camada 1"
     inkscape:groupmode="layer"
     id="layer1">
    <g
       id="g1"
       transform="translate(-52.908271,-49.916312)">
      <path
         sodipodi:type="star"
         style="fill:#090909;fill-opacity:1;stroke:none;stroke-width:5.21571;stroke-dasharray:none;stroke-opacity:1;paint-order:stroke fill markers"
         id="path13"
         inkscape:flatsided="true"
         sodipodi:sides="6"
         sodipodi:cx="-1591.9718"
         sodipodi:cy="45.862179"
         sodipodi:r1="319.68564"
         sodipodi:r2="159.84282"
         sodipodi:arg1="0.51716788"
         sodipodi:arg2="1.0407667"
         inkscape:rounded="0.15"
         inkscape:randomized="0"
         d="m -1314.0937,203.92127 c -23.7089,41.68172 -227.8704,161.31156 -275.8223,161.61994 -47.9518,0.30837 -253.635,-116.68576 -277.878,-158.0591 -24.243,-41.37333 -25.7648,-277.997313 -2.0559,-319.67903 23.7089,-41.68171 227.8704,-161.31155 275.8222,-161.61993 47.9519,-0.30838 253.6351,116.68576 277.8781,158.0591 24.243,41.373331 25.7647,277.99731 2.0559,319.67902 z"
         transform="matrix(0.3058259,0,0,0.3058259,644.77448,140.89047)" />
      <path
         style="fill:#f9f9f9;fill-opacity:1;stroke:none;stroke-width:9.05624;stroke-dasharray:none;stroke-opacity:1;paint-order:stroke fill markers"
         d="m 129.42099,124.48777 c -15.44849,-8.21402 -28.17501,-15.01349 -28.28116,-15.10995 -0.10624,-0.0965 12.6385,-6.92897 28.32156,-15.183359 l 28.51468,-15.00799 1.36393,0.67134 c 2.21243,1.089031 55.12567,29.252999 55.33692,29.454029 0.18479,0.17587 -56.43352,30.12816 -56.92826,30.11626 -0.13178,-0.003 -12.87927,-6.72632 -28.32767,-14.94033 z"
         id="path10-8-5" />
      <path
         style="fill:#f9f9f9;fill-opacity:1;stroke:none;stroke-width:10.0089;stroke-dasharray:none;stroke-opacity:1;paint-order:stroke fill markers"
         d="m 153.53057,230.46923 c -2.53138,-0.26655 -7.08531,-1.29357 -9.93056,-2.23957 -8.03677,-2.67209 -19.847,-9.81217 -27.67587,-16.73198 -8.13041,-7.18632 -12.94069,-15.10913 -14.4618,-23.81961 -0.60985,-3.49224 -0.37085,-9.64534 0.52177,-13.43243 1.42732,-6.05545 3.64437,-11.22499 6.94848,-16.20179 l 1.70214,-2.56371 1.91768,0.88086 c 2.65671,1.22032 5.04518,1.93818 15.55577,4.67532 14.05546,3.66028 20.07044,5.8358 22.61173,8.17832 0.66734,0.61513 2.22225,2.44562 3.45531,4.06777 3.08897,4.06361 3.80121,4.85883 4.04816,4.51982 0.11349,-0.15579 1.12571,-1.60431 2.24944,-3.21894 3.1593,-4.5396 4.61993,-5.97977 7.46604,-7.36144 3.54926,-1.72305 9.21783,-3.52024 19.62066,-6.22064 10.04443,-2.60737 13.76529,-3.75536 16.27044,-5.01996 l 1.61474,-0.8151 1.33426,2.05867 c 3.07828,4.74954 5.59559,10.99462 7.02135,17.41876 0.93751,4.22432 1.17431,10.68798 0.52767,14.40562 -1.27677,7.34103 -4.87375,13.73762 -11.40906,20.28891 -3.76697,3.77615 -6.93092,6.29856 -12.19019,9.71844 -8.52154,5.54119 -13.68183,7.94744 -21.17676,9.87473 -5.81397,1.49505 -11.36673,2.02808 -16.0214,1.53795 z"
         id="path8-5-8-8" />
      <g
         id="g11-9-0-6"
         transform="matrix(0.64385839,0,0,0.64385839,90.737075,96.280261)"
         style="fill:#090909;fill-opacity:1">
        <g
           id="g6-9-8-1"
           transform="matrix(3.4989652,0,0,3.4989652,-375.64003,-635.74376)"
           style="fill:#090909;fill-opacity:1">
          <path
             id="path1-42-9-8-7-2"
             style="fill:#090909;fill-opacity:1;stroke-width:0.430392;paint-order:stroke fill markers"
             d="m 137.35534,223.43174 c -0.2706,0.0415 -0.64879,0.3747 -0.90481,1.05499 -0.29696,0.78912 -0.55149,1.77936 -0.64184,3.27066 -0.085,1.40263 -0.007,3.22951 0.86525,4.99736 0.21033,0.45122 0.4442,0.71803 0.68029,0.72016 0.24926,0.003 0.57417,-0.41777 0.71923,-0.74735 0.87196,-1.76785 0.9124,-3.56509 0.82742,-4.96773 -0.0903,-1.49129 -0.30205,-2.43132 -0.58208,-3.20363 -0.269,-0.7419 -0.69275,-1.07853 -0.96346,-1.1218 z"
             sodipodi:nodetypes="cascacsacc" />
          <path
             id="path1-42-9-0-1-7-4"
             style="fill:#090909;fill-opacity:1;stroke-width:0.430392;paint-order:stroke fill markers"
             d="m 137.35183,223.43028 v 10.04021 c 0.24893,1.6e-4 0.57166,-0.41928 0.71624,-0.74775 0.87196,-1.76785 0.91283,-3.56502 0.82785,-4.96766 -0.0903,-1.49129 -0.30236,-2.43111 -0.58239,-3.20342 -0.26849,-0.74049 -0.69092,-1.07708 -0.9617,-1.12138 z" />
        </g>
        <g
           id="g10-8-8-2"
           transform="matrix(2.9087362,0,0,2.9087362,-873.62612,-297.15271)"
           style="fill:#090909;fill-opacity:1">
          <ellipse
             style="fill:#090909;fill-opacity:1;stroke-width:4.18858;paint-order:stroke fill markers"
             id="path9-26-3-5"
             cx="152.88905"
             cy="324.69589"
             rx="3.0365899"
             ry="4.4079533"
             transform="rotate(-40.201213)" />
          <ellipse
             style="fill:#090909;fill-opacity:1;stroke-width:3.58476;paint-order:stroke fill markers"
             id="path9-2-6-8-86"
             cx="168.08362"
             cy="317.77872"
             rx="2.5988419"
             ry="3.7725129"
             transform="rotate(-37.547598)" />
        </g>
        <g
           id="g10-6-0-3-2"
           transform="matrix(-2.9087362,0,0,2.9087362,1082.2782,-297.50707)"
           style="fill:#090909;fill-opacity:1">
          <ellipse
             style="fill:#090909;fill-opacity:1;stroke-width:4.18858;paint-order:stroke fill markers"
             id="path9-5-3-7-65"
             cx="152.88905"
             cy="324.69589"
             rx="3.0365899"
             ry="4.4079533"
             transform="rotate(-40.201213)" />
          <ellipse
             style="fill:#090909;fill-opacity:1;stroke-width:3.58476;paint-order:stroke fill markers"
             id="path9-2-7-8-1-3"
             cx="168.08362"
             cy="317.77872"
             rx="2.5988419"
             ry="3.7725129"
             transform="rotate(-37.547598)" />
        </g>
      </g>
      <path
         id="path2-3-1-0-9"
         style="fill:#f9f9f9;fill-opacity:1;stroke-width:8.15681;paint-order:stroke fill markers"
         d="m 222.17405,115.69101 c 0,0 -7.74334,7.51674 -12.18862,10.52628 -14.38018,9.73568 -34.56125,11.12743 -46.26004,23.96139 -2.96719,3.25514 -3.95237,7.95826 -4.96787,12.24415 -0.81151,3.42495 -0.84814,10.46154 -0.84863,10.57225 0,-0.1107 -0.0377,-7.14693 -0.84901,-10.57188 -1.01555,-4.28589 -2.00068,-8.98939 -4.96789,-12.24452 -11.69879,-12.83396 -31.87991,-14.22534 -46.26012,-23.96102 -4.44527,-3.00954 -12.188228,-10.52628 -12.188228,-10.52628 0,0 -0.120342,13.77085 1.938814,20.22158 1.972088,6.17772 6.480604,12.70568 18.836484,18.55963 7.27881,3.44854 30.13832,6.75824 38.5044,12.74237 2.02558,1.55313 4.98154,5.8108 4.98475,5.81542 v 0.002 -6.1e-4 6.1e-4 -0.002 c 0.007,-0.004 2.95954,-4.26265 4.98512,-5.81579 8.36605,-5.98412 31.22524,-9.29383 38.50402,-12.74237 12.35589,-5.85395 16.86442,-12.38191 18.83649,-18.55963 2.05916,-6.45073 1.93919,-20.22158 1.93919,-20.22158 z" />
      <path
         style="fill:#f9f9f9;fill-opacity:1;stroke:none;stroke-width:9.05624;stroke-dasharray:none;stroke-opacity:1;paint-order:stroke fill markers"
         d="m 157.40531,155.28845 c -0.98724,-3.93001 -3.81998,-8.51058 -6.77787,-10.95971 -3.64529,-3.01835 -11.57814,-7.13643 -20.2098,-10.49132 l -5.12344,-1.99132 v -3.01382 -3.01382 l 1.93022,1.05641 c 3.23307,1.76947 30.57415,16.28632 30.6737,16.28632 0.0512,0 7.37704,-3.83382 16.27966,-8.5196 8.90272,-4.68578 16.2222,-8.5196 16.26566,-8.5196 0.0434,0 0.0789,1.30859 0.0789,2.90797 v 2.90796 l -0.99834,0.32534 c -5.92531,1.93082 -16.91884,7.06537 -21.06369,9.83783 -2.85602,1.91035 -5.93321,4.90739 -7.57635,7.379 -1.50665,2.26631 -1.99191,3.35482 -2.57524,5.7768 l -0.44449,1.84555 z"
         id="path11-7-2" />
    </g>
  </g>
</svg>
